<svg height="512" viewBox="0 0 58 58" width="512" xmlns="http://www.w3.org/2000/svg"><g id="013---Doughnut" fill="none" transform="translate(-1)"><path id="Shape" d="m58.62 33.68c-2.2928739 14.0239831-14.4098145 24.3207266-28.62 24.3207266s-26.32712607-10.2967435-28.62-24.3207266c.79513636 1.6916842 2.65586893 2.6071167 4.4812652 2.2046671 1.82539626-.4024495 3.12867688-2.0154598 3.1387348-3.8846671v-2.5c0-1.9329966 1.5670034-3.5 3.5-3.5s3.5 1.5670034 3.5 3.5v9.5c0 2.209139 1.790861 4 4 4 2.21 0 4-3.07 4-5.28v-4.72c1.5186643 1.7220035 3.7039953 2.7084974 6 2.7084974s4.4813357-.9864939 6-2.7084974v14c0 2.209139 1.790861 4 4 4s4-1.790861 4-4v-17.5c0-1.9329966 1.5670034-3.5 3.5-3.5s3.5 1.5670034 3.5 3.5v2.5c.0100579 1.8692073 1.3133385 3.4822176 3.1387348 3.8846671 1.8253963.4024496 3.6861288-.5129829 4.4812652-2.2046671z" fill="#fac176"/><path id="Shape" d="m58.62 33.68c-.7951364 1.6916842-2.6558689 2.6071167-4.4812652 2.2046671-1.8253963-.4024495-3.1286769-2.0154598-3.1387348-3.8846671v-2.5c0-1.9329966-1.5670034-3.5-3.5-3.5s-3.5 1.5670034-3.5 3.5v17.5c0 2.209139-1.790861 4-4 4s-4-1.790861-4-4v-18c0-3.3137085-2.6862915-6-6-6s-6 2.6862915-6 6v10c0 2.209139-1.790861 4-4 4s-4-1.790861-4-4v-9.5c0-1.9329966-1.5670034-3.4999999-3.5-3.4999999s-3.49999996 1.5670033-3.5 3.4999999v2.5c-.01005792 1.8692073-1.31333854 3.4822176-3.1387348 3.8846671-1.82539627.4024496-3.68612884-.5129829-4.4812652-2.2046671-1.85372292-11.3379888 3.16040717-22.7013547 12.785091-28.97445111 9.6246839-6.27309645 22.0451341-6.27309645 31.669818 0 9.6246838 6.27309641 14.6388139 17.63646231 12.785091 28.97445111z" fill="#cc66a1"/><path id="Shape" d="m12 20c-.4062651.0023626-.77358-.2413038-.929371-.6165185-.1557909-.3752147-.0690889-.807391.219371-1.0934815l1-1c.2536586-.2536586.623374-.3527235.969878-.259878.3465041.0928454.6171546.3634959.71.71.0928455.346504-.0062194.7162194-.259878.969878-1.06 1.06-1.19 1.29-1.71 1.29z" fill="#7ed09e"/><path id="Shape" d="m23 8c-.4062651.00236262-.77358-.24130378-.929371-.61651849-.1557909-.37521472-.0690889-.80739105.219371-1.09348151l1-1c.3921222-.39212217 1.0278778-.39212217 1.42 0s.3921222 1.02787783 0 1.42c-1.06 1.06-1.19 1.29-1.71 1.29z" fill="#f29c1f"/><g fill="#f5efca"><path id="Shape" d="m11 14c-.4062651.0023626-.77358-.2413038-.929371-.6165185-.15579086-.3752147-.0690889-.807391.219371-1.0934815l1-1c.3921222-.3921222 1.0278778-.3921222 1.42 0s.3921222 1.0278778 0 1.42c-1.06 1.06-1.19 1.29-1.71 1.29z"/><path id="Shape" d="m22 20c-.4062651.0023626-.77358-.2413038-.929371-.6165185-.1557909-.3752147-.0690889-.807391.219371-1.0934815l1-1c.2536586-.2536586.623374-.3527235.969878-.259878.3465041.0928454.6171546.3634959.71.71.0928455.346504-.0062194.7162194-.259878.969878-1.06 1.06-1.19 1.29-1.71 1.29z"/><path id="Shape" d="m29.5 6c-.4044441-.00169577-.7680455-.24684724-.9212679-.62114764s-.0658935-.80404325.2212679-1.08885236l1-1c.3900375-.38772359 1.0199625-.38772359 1.41 0 .1893127.1877666.2957983.44336246.2957983.71s-.1064856.5222334-.2957983.71c-1.06 1.06-1.21 1.29-1.71 1.29z"/></g><path id="Shape" d="m20 25c-.53 0-.67-.26-1.71-1.29-.3921222-.3921222-.3921222-1.0278778 0-1.42s1.0278778-.3921222 1.42 0l1 1c.2884599.2860905.3751619.7182668.219371 1.0934815-.155791.3752147-.5231059.6188811-.929371.6165185z" fill="#f29c1f"/><path id="Shape" d="m20 13c-.53 0-.67-.26-1.71-1.29-.2536586-.2536586-.3527235-.623374-.259878-.969878.0928454-.3465041.3634959-.6171546.71-.71.346504-.09284552.7162194.0062194.969878.259878l1 1c.2884599.2860905.3751619.7182668.219371 1.0934815-.155791.3752147-.5231059.6188811-.929371.6165185z" fill="#7ed09e"/><path id="Shape" d="m7 25c-.53 0-.67-.26-1.71-1.29-.39212217-.3921222-.39212217-1.0278778 0-1.42s1.02787783-.3921222 1.42 0l1 1c.28845995.2860905.37516186.7182668.21937095 1.0934815s-.52310588.6188811-.92937095.6165185z" fill="#f5efca"/><path id="Shape" d="m48 20c-.53 0-.67-.26-1.71-1.29-.3921222-.3921222-.3921222-1.0278778 0-1.42s1.0278778-.3921222 1.42 0l1 1c.2884599.2860905.3751619.7182668.219371 1.0934815-.155791.3752147-.5231059.6188811-.929371.6165185z" fill="#7ed09e"/><path id="Shape" d="m37 8c-.53 0-.67-.26-1.71-1.29-.3921221-.39212218-.3921221-1.02787781 0-1.41999996.3921222-.39212216 1.0278778-.39212218 1.42-.00000004l1 1c.2884599.28609046.3751619.71826679.219371 1.09348151-.155791.37521471-.5231059.61888111-.929371.61651849z" fill="#7ed09e"/><path id="Shape" d="m49 14c-.53 0-.67-.26-1.71-1.29-.3921221-.3921222-.3921221-1.0278778 0-1.42.3921222-.3921221 1.0278778-.3921221 1.42 0l1 1c.2884599.2860905.3751619.7182668.219371 1.0934815-.155791.3752147-.5231059.6188811-.929371.6165185z" fill="#f5efca"/><path id="Shape" d="m38 20c-.53 0-.67-.26-1.71-1.29-.2536586-.2536586-.3527235-.623374-.259878-.969878.0928454-.3465041.3634959-.6171546.71-.71.346504-.0928455.7162194.0062194.969878.259878l1 1c.2884599.2860905.3751619.7182668.219371 1.0934815-.155791.3752147-.5231059.6188811-.929371.6165185z" fill="#f5efca"/><path id="Shape" d="m30 19c-.53 0-.67-.26-1.71-1.29-.2536586-.2536586-.3527235-.623374-.259878-.969878.0928454-.3465041.3634959-.6171546.71-.71.346504-.0928455.7162194.0062194.969878.259878l1 1c.2884599.2860905.3751619.7182668.219371 1.0934815-.155791.3752147-.5231059.6188811-.929371.6165185z" fill="#7ed09e"/><path id="Shape" d="m40 25c-.4062651.0023626-.77358-.2413038-.929371-.6165185-.1557909-.3752147-.0690889-.807391.219371-1.0934815l1-1c.3921222-.3921221 1.0278778-.3921221 1.42 0 .3921221.3921222.3921221 1.0278778 0 1.42-1.06 1.06-1.19 1.29-1.71 1.29z" fill="#f29c1f"/><path id="Shape" d="m40 13c-.4062651.0023626-.77358-.2413038-.929371-.6165185-.1557909-.3752147-.0690889-.807391.219371-1.0934815l1-1c.3921222-.39212214 1.0278778-.39212212 1.42 0 .3921221.3921222.3921221 1.0278778 0 1.42-1.06 1.06-1.19 1.29-1.71 1.29z" fill="#f29c1f"/><path id="Shape" d="m30 13c-.4062651.0023626-.77358-.2413038-.929371-.6165185-.1557909-.3752147-.0690889-.807391.219371-1.0934815l1-1c.2536586-.2536586.623374-.35272352.969878-.259878.3465041.0928454.6171546.3634959.71.71.0928455.346504-.0062194.7162194-.259878.969878-1.06 1.06-1.19 1.29-1.71 1.29z" fill="#f5efca"/><path id="Shape" d="m53 25c-.4062651.0023626-.77358-.2413038-.929371-.6165185-.1557909-.3752147-.0690889-.807391.219371-1.0934815l1-1c.3921222-.3921221 1.0278778-.3921221 1.42 0 .3921221.3921222.3921221 1.0278778 0 1.42-1.06 1.06-1.19 1.29-1.71 1.29z" fill="#f5efca"/><path id="Shape" d="m30 21c-3.1400626.0039719-5.9874431 1.8445687-7.2803141 4.7061231-1.292871 2.8615545-.7921314 6.2148562 1.2803141 8.5738769v-5.28c.0000001 3.3137084 2.6862916 5.9999999 6 5.9999999s5.9999999-2.6862915 6-5.9999999v5.28c2.0724455-2.3590207 2.5731851-5.7123224 1.2803141-8.5738769-1.292871-2.8615544-4.1402515-4.7021512-7.2803141-4.7061231zm0 14c-3.3137085 0-6-2.6862915-6-6s2.6862915-6 6-6 6 2.6862915 6 6-2.6862915 6-6 6z" fill="#804169"/><path id="Shape" d="m36 29v5.28c-1.5186643 1.7220035-3.7039953 2.7084974-6 2.7084974s-4.4813357-.9864939-6-2.7084974v-5.28c0 3.3137085 2.6862915 6 6 6s6-2.6862915 6-6z" fill="#f18d46"/></g></svg>